<?xml version="1.0" standalone="no"?>
<!DOCTYPE svg PUBLIC "-//W3C//DTD SVG 20010904//EN"
 "http://www.w3.org/TR/2001/REC-SVG-20010904/DTD/svg10.dtd">
<svg version="1.0" xmlns="http://www.w3.org/2000/svg"
 width="512.000000pt" height="512.000000pt" viewBox="0 0 512.000000 512.000000"
 preserveAspectRatio="xMidYMid meet">

<g transform="translate(0.000000,512.000000) scale(0.100000,-0.100000)"
fill="#000000" stroke="none">
<path d="M2440 4234 c-279 -33 -477 -91 -675 -199 -244 -133 -479 -355 -632
-600 -89 -141 -174 -357 -215 -548 -19 -88 -22 -132 -22 -327 0 -195 3 -239
22 -327 76 -350 236 -640 484 -878 132 -127 261 -219 413 -294 118 -59 264
-113 338 -126 l37 -7 0 125 0 126 -107 -6 c-249 -12 -401 74 -498 282 -58 125
-104 187 -175 235 -66 45 -110 93 -110 121 0 32 62 52 140 47 113 -8 200 -66
286 -189 98 -139 168 -182 294 -182 44 0 96 7 126 17 48 16 52 20 58 55 3 21
19 63 34 95 16 31 26 58 23 60 -3 2 -28 7 -56 11 -166 24 -354 110 -464 211
-143 132 -216 299 -242 549 -23 228 17 399 130 563 l39 57 -14 65 c-7 36 -14
92 -14 126 0 107 37 267 68 292 9 6 42 12 75 12 93 0 248 -59 384 -146 l51
-33 94 19 c228 47 484 47 702 0 l89 -20 46 29 c147 94 311 154 412 149 l63 -3
24 -75 c31 -93 41 -286 19 -364 l-13 -49 52 -78 c87 -130 124 -255 124 -424 0
-383 -147 -657 -425 -790 -78 -38 -218 -81 -295 -91 -53 -7 -59 -16 -34 -49 8
-11 24 -49 36 -85 19 -58 22 -93 26 -337 l4 -271 81 34 c311 133 589 374 774
669 89 141 174 357 215 548 19 88 22 132 22 327 0 195 -3 239 -22 327 -76 350
-236 640 -484 878 -255 245 -552 395 -897 451 -88 15 -328 26 -391 18z"/>
<path d="M1506 1745 c-3 -9 1 -18 10 -22 19 -7 39 11 30 26 -10 16 -33 13 -40
-4z"/>
<path d="M1572 1673 c4 -21 33 -25 33 -3 0 8 -8 16 -18 18 -14 3 -18 -1 -15
-15z"/>
<path d="M1625 1591 c-8 -15 3 -31 21 -31 9 0 14 7 12 17 -4 20 -24 28 -33 14z"/>
<path d="M1700 1476 c0 -8 4 -17 8 -20 13 -8 35 11 28 23 -10 16 -36 14 -36
-3z"/>
<path d="M1795 1410 c-8 -13 3 -30 20 -30 14 0 27 24 18 34 -10 9 -31 7 -38
-4z"/>
<path d="M2070 1376 c0 -8 4 -17 8 -20 13 -8 35 11 28 23 -10 16 -36 14 -36
-3z"/>
<path d="M1940 1366 c0 -8 4 -17 8 -20 13 -8 35 11 28 23 -10 16 -36 14 -36
-3z"/>
</g>
</svg>
