<?xml version="1.0" standalone="no"?>
<!DOCTYPE svg PUBLIC "-//W3C//DTD SVG 20010904//EN"
 "http://www.w3.org/TR/2001/REC-SVG-20010904/DTD/svg10.dtd">
<svg version="1.0" xmlns="http://www.w3.org/2000/svg"
 width="38.000000pt" height="38.000000pt" viewBox="0 0 38.000000 38.000000"
 preserveAspectRatio="xMidYMid meet">

<g transform="translate(0.000000,38.000000) scale(0.100000,-0.100000)"
fill="#000000" stroke="none">
<path d="M129 354 c-6 -8 -3 -13 11 -17 11 -3 18 -1 15 3 -3 5 12 10 32 12
l38 3 -43 5 c-27 4 -47 1 -53 -6z"/>
<path d="M245 340 c3 -5 -9 -19 -27 -30 -37 -22 -117 -27 -136 -8 -9 9 -13 7
-18 -7 -12 -32 23 -47 91 -41 44 4 65 2 79 -9 11 -8 17 -17 14 -21 -4 -3 -43
-8 -87 -11 -70 -5 -84 -3 -102 13 -21 19 -21 19 -18 -6 5 -32 41 -50 102 -50
40 0 49 4 57 23 7 18 9 19 9 4 1 -17 2 -17 17 -3 23 24 34 19 34 -14 0 -26 -4
-30 -37 -35 -21 -3 -45 -8 -55 -9 -9 -2 -36 0 -60 4 l-43 8 24 -19 c15 -13 39
-19 70 -19 56 0 124 18 116 30 -3 6 0 8 7 5 16 -5 42 14 51 38 6 16 3 16 -24
-3 -16 -12 -32 -20 -35 -17 -7 7 18 60 36 75 13 11 12 12 -5 11 -31 -2 -49 1
-64 10 -11 7 -9 14 15 34 24 21 27 27 15 41 -14 17 -36 22 -26 6z m25 -20 c0
-31 -113 -68 -170 -55 -50 11 -34 22 27 17 42 -4 65 0 90 13 18 10 33 22 33
27 0 4 5 8 10 8 6 0 10 -5 10 -10z m10 -96 c0 -8 -4 -12 -10 -9 -5 3 -10 10
-10 16 0 5 5 9 10 9 6 0 10 -7 10 -16z m-144 -24 c33 0 54 -4 54 -11 0 -16
-117 -6 -133 11 -10 10 -9 12 6 6 10 -3 43 -6 73 -6z m77 -77 c-7 -2 -21 -2
-30 0 -10 3 -4 5 12 5 17 0 24 -2 18 -5z"/>
<path d="M240 100 c0 -5 5 -10 11 -10 5 0 7 5 4 10 -3 6 -8 10 -11 10 -2 0 -4
-4 -4 -10z"/>
<path d="M185 90 l-40 -7 43 -2 c23 0 42 4 42 9 0 6 -1 9 -2 9 -2 -1 -21 -5
-43 -9z"/>
</g>
</svg>
